<?xml version="1.0" standalone="no"?>
<!DOCTYPE svg PUBLIC "-//W3C//DTD SVG 1.1//EN" "http://www.w3.org/Graphics/SVG/1.1/DTD/svg11.dtd">
<svg stroke-width="0.501" stroke-linejoin="bevel" fill-rule="evenodd" xmlns:xlink="http://www.w3.org/1999/xlink" xmlns="http://www.w3.org/2000/svg" version="1.1" overflow="visible" width="24pt" height="21.75pt" viewBox="0 0 24 21.75">
 <g id="Document" fill="none" stroke="black" font-family="Times New Roman" font-size="16" transform="scale(1 -1)">
  <g id="Spread" transform="translate(0 -21.75)">
    <path d="M 23.925,16.08 C 23.925,16.08 19.867,6.765 19.867,6.765 C 19.725,6.442 19.41,6.232 19.057,6.232 C 19.057,6.232 7.912,6.232 7.912,6.232 C 7.515,6.232 7.162,6.502 7.057,6.885 C 7.057,6.885 3.435,19.98 3.435,19.98 C 3.435,19.98 0.885,19.98 0.885,19.98 C 0.397,19.98 0,20.377 0,20.865 C 0,21.352 0.397,21.75 0.885,21.75 C 0.885,21.75 4.095,21.75 4.095,21.75 C 4.5,21.75 4.852,21.487 4.957,21.097 C 4.957,21.097 8.58,8.01 8.58,8.01 C 8.58,8.01 18.465,8.01 18.465,8.01 C 18.465,8.01 21.75,15.547 21.75,15.547 C 21.75,15.547 10.8,15.547 10.8,15.547 C 10.312,15.547 9.915,15.945 9.915,16.432 C 9.915,16.92 10.312,17.317 10.8,17.317 C 10.8,17.317 23.107,17.317 23.107,17.317 C 23.407,17.317 23.685,17.167 23.85,16.92 C 24.015,16.665 24.045,16.357 23.925,16.08 Z M 7.072,4.02 C 8.182,4.02 9.082,3.12 9.082,2.01 C 9.082,0.9 8.182,0 7.072,0 C 5.962,0 5.062,0.9 5.062,2.01 C 5.062,3.12 5.962,4.02 7.072,4.02 Z M 19.515,4.02 C 20.625,4.094 21.585,3.247 21.66,2.159 C 21.69,1.612 21.525,1.094 21.172,0.697 C 20.82,0.277 20.332,0.044 19.792,0 C 19.755,0 19.695,0 19.65,0 C 18.6,0 17.722,0.825 17.647,1.875 C 17.58,2.969 18.405,3.945 19.515,4.02 Z" fill="#ff7f7f" stroke="none" stroke-width="0.75" fill-rule="evenodd" stroke-linejoin="miter" marker-start="none" marker-end="none" stroke-miterlimit="79.8403193612775"/>
  </g>
 </g>
</svg>
